<?xml version="1.0" encoding="UTF-8" standalone="no"?>
<!DOCTYPE svg PUBLIC "-//W3C//DTD SVG 1.1//EN"
 "http://www.w3.org/Graphics/SVG/1.1/DTD/svg11.dtd">
<!-- Generated by graphviz version 2.38.0 (20140413.2041)
 -->
<!-- Title: FST Pages: 1 -->
<svg width="499pt" height="98pt"
 viewBox="0.00 0.00 499.45 97.51" xmlns="http://www.w3.org/2000/svg" xmlns:xlink="http://www.w3.org/1999/xlink">
<g id="graph0" class="graph" transform="scale(1 1) rotate(0) translate(4 93.5074)">
<title>FST</title>
<polygon fill="white" stroke="none" points="-4,4 -4,-93.5074 495.453,-93.5074 495.453,4 -4,4"/>
<!-- 0 -->
<g id="node1" class="node"><title>0</title>
<ellipse fill="none" stroke="black" stroke-width="2" cx="18" cy="-31.7074" rx="18" ry="18"/>
<text text-anchor="middle" x="18" y="-27.5074" font-family="Times,serif" font-size="14.00">0</text>
</g>
<!-- 1 -->
<g id="node2" class="node"><title>1</title>
<ellipse fill="none" stroke="black" cx="101.891" cy="-31.7074" rx="18" ry="18"/>
<text text-anchor="middle" x="101.891" y="-27.5074" font-family="Times,serif" font-size="14.00">1</text>
</g>
<!-- 0&#45;&gt;1 -->
<g id="edge1" class="edge"><title>0&#45;&gt;1</title>
<path fill="none" stroke="black" d="M36.3669,-31.7074C47.1881,-31.7074 61.3422,-31.7074 73.6357,-31.7074"/>
<polygon fill="black" stroke="black" points="73.8296,-35.2075 83.8296,-31.7074 73.8295,-28.2075 73.8296,-35.2075"/>
<text text-anchor="middle" x="59.9453" y="-35.9074" font-family="Times,serif" font-size="14.00">1:1</text>
</g>
<!-- 0&#45;&gt;1 -->
<g id="edge2" class="edge"><title>0&#45;&gt;1</title>
<path fill="none" stroke="black" d="M32.4597,-20.4881C37.8731,-16.666 44.3931,-12.866 51,-10.9074 58.6235,-8.64753 61.2671,-8.64753 68.8906,-10.9074 72.2973,-11.9173 75.6809,-13.4168 78.9016,-15.1564"/>
<polygon fill="black" stroke="black" points="77.0961,-18.1553 87.4309,-20.4881 80.8065,-12.2196 77.0961,-18.1553"/>
<text text-anchor="middle" x="59.9453" y="-15.9074" font-family="Times,serif" font-size="14.00">2:2</text>
</g>
<!-- 2 -->
<g id="node3" class="node"><title>2</title>
<ellipse fill="none" stroke="black" cx="185.781" cy="-31.7074" rx="18" ry="18"/>
<text text-anchor="middle" x="185.781" y="-27.5074" font-family="Times,serif" font-size="14.00">2</text>
</g>
<!-- 1&#45;&gt;2 -->
<g id="edge3" class="edge"><title>1&#45;&gt;2</title>
<path fill="none" stroke="black" d="M120.257,-31.7074C131.079,-31.7074 145.233,-31.7074 157.526,-31.7074"/>
<polygon fill="black" stroke="black" points="157.72,-35.2075 167.72,-31.7074 157.72,-28.2075 157.72,-35.2075"/>
<text text-anchor="middle" x="143.836" y="-35.9074" font-family="Times,serif" font-size="14.00">3:3</text>
</g>
<!-- 1&#45;&gt;2 -->
<g id="edge4" class="edge"><title>1&#45;&gt;2</title>
<path fill="none" stroke="black" d="M116.35,-20.4881C121.764,-16.666 128.284,-12.866 134.891,-10.9074 142.514,-8.64753 145.158,-8.64753 152.781,-10.9074 156.188,-11.9173 159.571,-13.4168 162.792,-15.1564"/>
<polygon fill="black" stroke="black" points="160.987,-18.1553 171.321,-20.4881 164.697,-12.2196 160.987,-18.1553"/>
<text text-anchor="middle" x="143.836" y="-15.9074" font-family="Times,serif" font-size="14.00">4:4</text>
</g>
<!-- 3 -->
<g id="node4" class="node"><title>3</title>
<ellipse fill="none" stroke="black" cx="269.672" cy="-51.7074" rx="18" ry="18"/>
<text text-anchor="middle" x="269.672" y="-47.5074" font-family="Times,serif" font-size="14.00">3</text>
</g>
<!-- 2&#45;&gt;3 -->
<g id="edge5" class="edge"><title>2&#45;&gt;3</title>
<path fill="none" stroke="black" d="M195.274,-47.2148C200.772,-55.5506 208.772,-65.0506 218.781,-69.7074 227.487,-73.7579 237.379,-71.5216 246.046,-67.4484"/>
<polygon fill="black" stroke="black" points="247.839,-70.456 254.856,-62.518 244.42,-64.3476 247.839,-70.456"/>
<text text-anchor="middle" x="227.726" y="-76.9074" font-family="Times,serif" font-size="14.00">5:5</text>
</g>
<!-- 2&#45;&gt;3 -->
<g id="edge6" class="edge"><title>2&#45;&gt;3</title>
<path fill="none" stroke="black" d="M203.353,-35.7547C214.453,-38.4656 229.31,-42.0941 242.05,-45.2056"/>
<polygon fill="black" stroke="black" points="241.58,-48.6936 252.125,-47.6661 243.241,-41.8935 241.58,-48.6936"/>
<text text-anchor="middle" x="227.726" y="-47.9074" font-family="Times,serif" font-size="14.00">6:6</text>
</g>
<!-- 2&#45;&gt;3 -->
<g id="edge7" class="edge"><title>2&#45;&gt;3</title>
<path fill="none" stroke="black" d="M202.014,-23.3179C212.1,-18.9114 225.481,-15.2927 236.672,-19.9074 242.102,-22.1469 247.098,-25.8036 251.446,-29.8548"/>
<polygon fill="black" stroke="black" points="249.119,-32.4875 258.53,-37.3525 254.207,-27.6801 249.119,-32.4875"/>
<text text-anchor="middle" x="227.726" y="-24.9074" font-family="Times,serif" font-size="14.00">7:7</text>
</g>
<!-- 5 -->
<g id="node5" class="node"><title>5</title>
<ellipse fill="none" stroke="black" cx="469.453" cy="-31.7074" rx="18" ry="18"/>
<ellipse fill="none" stroke="black" cx="469.453" cy="-31.7074" rx="22" ry="22"/>
<text text-anchor="middle" x="469.453" y="-27.5074" font-family="Times,serif" font-size="14.00">5</text>
</g>
<!-- 2&#45;&gt;5 -->
<g id="edge8" class="edge"><title>2&#45;&gt;5</title>
<path fill="none" stroke="black" d="M201.232,-22.4663C206.551,-19.4932 212.753,-16.5058 218.781,-14.7074 289.996,6.53766 311.25,-1.91512 385.562,-2.70743 406.406,-2.92966 412.81,3.26736 432.453,-3.70743 436.853,-5.26971 441.136,-7.59793 445.123,-10.2563"/>
<polygon fill="black" stroke="black" points="443.216,-13.2027 453.307,-16.4342 447.434,-7.61582 443.216,-13.2027"/>
<text text-anchor="middle" x="318.617" y="-5.90743" font-family="Times,serif" font-size="14.00">11:11</text>
</g>
<!-- 3&#45;&gt;5 -->
<g id="edge10" class="edge"><title>3&#45;&gt;5</title>
<path fill="none" stroke="black" d="M285.869,-59.881C291.049,-62.2488 296.974,-64.5155 302.672,-65.7074 316.545,-68.6094 320.42,-66.6424 334.562,-65.7074 378.356,-62.8122 390.933,-66.9315 432.453,-52.7074 435.602,-51.6287 438.781,-50.2596 441.879,-48.7394"/>
<polygon fill="black" stroke="black" points="443.711,-51.7266 450.813,-43.8641 440.358,-45.5819 443.711,-51.7266"/>
<text text-anchor="middle" x="367.562" y="-69.9074" font-family="Times,serif" font-size="14.00">9:9</text>
</g>
<!-- 4 -->
<g id="node6" class="node"><title>4</title>
<ellipse fill="none" stroke="black" cx="367.562" cy="-29.7074" rx="18" ry="18"/>
<text text-anchor="middle" x="367.562" y="-25.5074" font-family="Times,serif" font-size="14.00">4</text>
</g>
<!-- 3&#45;&gt;4 -->
<g id="edge9" class="edge"><title>3&#45;&gt;4</title>
<path fill="none" stroke="black" d="M287.375,-47.8753C301.861,-44.5518 323.087,-39.682 339.917,-35.8206"/>
<polygon fill="black" stroke="black" points="340.765,-39.2171 349.729,-33.5694 339.2,-32.3943 340.765,-39.2171"/>
<text text-anchor="middle" x="318.617" y="-48.9074" font-family="Times,serif" font-size="14.00">8:8</text>
</g>
<!-- 4&#45;&gt;5 -->
<g id="edge11" class="edge"><title>4&#45;&gt;5</title>
<path fill="none" stroke="black" d="M385.962,-30.0558C400.127,-30.3394 420.477,-30.7469 437.421,-31.0861"/>
<polygon fill="black" stroke="black" points="437.376,-34.5858 447.444,-31.2868 437.516,-27.5872 437.376,-34.5858"/>
<text text-anchor="middle" x="416.508" y="-35.9074" font-family="Times,serif" font-size="14.00">10:10</text>
</g>
<!-- 4&#45;&gt;5 -->
<g id="edge12" class="edge"><title>4&#45;&gt;5</title>
<path fill="none" stroke="black" d="M382.098,-19.0211C387.521,-15.382 394.027,-11.7658 400.562,-9.90743 414.196,-6.03073 418.801,-6.0962 432.453,-9.90743 435.864,-10.8597 439.274,-12.2328 442.561,-13.8333"/>
<polygon fill="black" stroke="black" points="440.962,-16.9498 451.397,-18.7853 444.385,-10.8433 440.962,-16.9498"/>
<text text-anchor="middle" x="416.508" y="-14.9074" font-family="Times,serif" font-size="14.00">9:9</text>
</g>
</g>
</svg>
