<?xml version="1.0" encoding="UTF-8" standalone="no"?>
<!-- Created with Inkscape (http://www.inkscape.org/) -->

<svg
   xmlns:dc="http://purl.org/dc/elements/1.1/"
   xmlns:cc="http://creativecommons.org/ns#"
   xmlns:rdf="http://www.w3.org/1999/02/22-rdf-syntax-ns#"
   xmlns:svg="http://www.w3.org/2000/svg"
   xmlns="http://www.w3.org/2000/svg"
   xmlns:sodipodi="http://sodipodi.sourceforge.net/DTD/sodipodi-0.dtd"
   xmlns:inkscape="http://www.inkscape.org/namespaces/inkscape"
   id="svg5505"
   version="1.1"
   inkscape:version="0.91 r13725"
   xml:space="preserve"
   width="765"
   height="246.25"
   viewBox="0 0 765 246.25"
   sodipodi:docname="parlato_hmm_Gfst_abgi.svg"><metadata
     id="metadata5511"><rdf:RDF><cc:Work
         rdf:about=""><dc:format>image/svg+xml</dc:format><dc:type
           rdf:resource="http://purl.org/dc/dcmitype/StillImage" /><dc:title></dc:title></cc:Work></rdf:RDF></metadata><defs
     id="defs5509" /><sodipodi:namedview
     pagecolor="#ffffff"
     bordercolor="#666666"
     borderopacity="1"
     objecttolerance="10"
     gridtolerance="10"
     guidetolerance="10"
     inkscape:pageopacity="0"
     inkscape:pageshadow="2"
     inkscape:window-width="1600"
     inkscape:window-height="876"
     id="namedview5507"
     showgrid="false"
     inkscape:zoom="2.9430431"
     inkscape:cx="302.07786"
     inkscape:cy="137.67859"
     inkscape:window-x="0"
     inkscape:window-y="24"
     inkscape:window-maximized="1"
     inkscape:current-layer="g5515" /><g
     id="g5513"
     inkscape:groupmode="layer"
     inkscape:label="parlato_hmm_Gfst"
     transform="matrix(1.25,0,0,-1.25,0,246.25)"><g
       id="g5515"><path
         d="m -35.065745,193.8619 612.000005,0 0,-196.7070023 -612.000005,0 0,196.7070023 z"
         style="fill:#ffffff;fill-opacity:1;fill-rule:nonzero;stroke:none"
         id="path5517"
         inkscape:connector-curvature="0" /><path
         d="m 37.242,92.762 c 0,-9.254 -7.504,-16.758 -16.762,-16.758 -9.253,0 -16.757,7.504 -16.757,16.758 0,9.258 7.504,16.758 16.757,16.758 9.258,0 16.762,-7.5 16.762,-16.758 z"
         style="fill:none;stroke:#000000;stroke-width:1.862028;stroke-linecap:butt;stroke-linejoin:miter;stroke-miterlimit:4;stroke-dasharray:none;stroke-opacity:1"
         id="path5519"
         inkscape:connector-curvature="0" /><text
         transform="matrix(1,0,0,-1,17.223759,88.852006)"
         style="font-variant:normal;font-weight:normal;font-size:13.0341959px;font-family:TeXGyreTermes;-inkscape-font-specification:TeXGyreTermes-Regular;writing-mode:lr-tb;fill:#000000;fill-opacity:1;fill-rule:nonzero;stroke:none"
         id="text5521"><tspan
           x="0"
           y="0"
           id="tspan5523">0</tspan></text>
<path
         d="m 113.883,92.762 c 0,-9.254 -7.504,-16.758 -16.758,-16.758 -9.258,0 -16.762,7.504 -16.762,16.758 0,9.258 7.504,16.758 16.762,16.758 9.254,0 16.758,-7.5 16.758,-16.758 z"
         style="fill:none;stroke:#000000;stroke-width:0.931014;stroke-linecap:butt;stroke-linejoin:miter;stroke-miterlimit:4;stroke-dasharray:none;stroke-opacity:1"
         id="path5525"
         inkscape:connector-curvature="0" /><text
         transform="matrix(1,0,0,-1,93.864831,88.852006)"
         style="font-variant:normal;font-weight:normal;font-size:13.0341959px;font-family:TeXGyreTermes;-inkscape-font-specification:TeXGyreTermes-Regular;writing-mode:lr-tb;fill:#000000;fill-opacity:1;fill-rule:nonzero;stroke:none"
         id="text5527"><tspan
           x="0"
           y="0"
           id="tspan5529">1</tspan></text>
<path
         d="m 37.273,92.762 33.465,0"
         style="fill:none;stroke:#000000;stroke-width:0.931014;stroke-linecap:butt;stroke-linejoin:miter;stroke-miterlimit:4;stroke-dasharray:none;stroke-opacity:1"
         id="path5531"
         inkscape:connector-curvature="0" /><path
         d="m 71.047,96.02 9.308,-3.258 -9.308,-3.258 0,6.516 z"
         style="fill:#000000;fill-opacity:1;fill-rule:nonzero;stroke:#000000;stroke-width:0.931014;stroke-linecap:butt;stroke-linejoin:miter;stroke-miterlimit:4;stroke-dasharray:none;stroke-opacity:1"
         id="path5533"
         inkscape:connector-curvature="0" /><text
         transform="matrix(1,0,0,-1,51.216442,96.672518)"
         style="font-variant:normal;font-weight:normal;font-size:13.0341959px;font-family:TeXGyreTermes;-inkscape-font-specification:TeXGyreTermes-Regular;writing-mode:lr-tb;fill:#000000;fill-opacity:1;fill-rule:nonzero;stroke:none"
         id="text5535"><tspan
           x="0 5.7871828 9.4106894"
           y="0"
           sodipodi:role="line"
           id="tspan5537">a:a</tspan></text>
<path
         d="m 191.984,92.762 c 0,-9.254 -7.504,-16.758 -16.757,-16.758 -9.254,0 -16.758,7.504 -16.758,16.758 0,9.258 7.504,16.758 16.758,16.758 9.253,0 16.757,-7.5 16.757,-16.758 z"
         style="fill:none;stroke:#000000;stroke-width:0.931014;stroke-linecap:butt;stroke-linejoin:miter;stroke-miterlimit:4;stroke-dasharray:none;stroke-opacity:1"
         id="path5539"
         inkscape:connector-curvature="0" /><text
         transform="matrix(1,0,0,-1,171.9676,88.852006)"
         style="font-variant:normal;font-weight:normal;font-size:13.0341959px;font-family:TeXGyreTermes;-inkscape-font-specification:TeXGyreTermes-Regular;writing-mode:lr-tb;fill:#000000;fill-opacity:1;fill-rule:nonzero;stroke:none"
         id="text5541"><tspan
           x="0"
           y="0"
           id="tspan5543">2</tspan></text>
<path
         d="m 114.223,92.762 34.699,0"
         style="fill:none;stroke:#000000;stroke-width:0.931014;stroke-linecap:butt;stroke-linejoin:miter;stroke-miterlimit:4;stroke-dasharray:none;stroke-opacity:1"
         id="path5545"
         inkscape:connector-curvature="0" /><path
         d="m 149.102,96.02 9.308,-3.258 -9.308,-3.258 0,6.516 z"
         style="fill:#000000;fill-opacity:1;fill-rule:nonzero;stroke:#000000;stroke-width:0.931014;stroke-linecap:butt;stroke-linejoin:miter;stroke-miterlimit:4;stroke-dasharray:none;stroke-opacity:1"
         id="path5547"
         inkscape:connector-curvature="0" /><text
         transform="matrix(1,0,0,-1,127.85019,96.672518)"
         style="font-variant:normal;font-weight:normal;font-size:13.0341959px;font-family:TeXGyreTermes;-inkscape-font-specification:TeXGyreTermes-Regular;writing-mode:lr-tb;fill:#000000;fill-opacity:1;fill-rule:nonzero;stroke:none"
         id="text5549"><tspan
           sodipodi:role="line"
           id="tspan5551"
           x="0"
           y="0">b:b</tspan></text>
<path
         d="m 321.199,92.762 c 0,-9.254 -7.504,-16.758 -16.758,-16.758 -9.257,0 -16.761,7.504 -16.761,16.758 0,9.258 7.504,16.758 16.761,16.758 9.254,0 16.758,-7.5 16.758,-16.758 z"
         style="fill:none;stroke:#000000;stroke-width:0.931014;stroke-linecap:butt;stroke-linejoin:miter;stroke-miterlimit:4;stroke-dasharray:none;stroke-opacity:1"
         id="path5553"
         inkscape:connector-curvature="0" /><text
         transform="matrix(1,0,0,-1,301.18115,88.852006)"
         style="font-variant:normal;font-weight:normal;font-size:13.0341959px;font-family:TeXGyreTermes;-inkscape-font-specification:TeXGyreTermes-Regular;writing-mode:lr-tb;fill:#000000;fill-opacity:1;fill-rule:nonzero;stroke:none"
         id="text5555"><tspan
           x="0"
           y="0"
           id="tspan5557">3</tspan></text>
<path
         d="m 177.742,109.336 c 2.641,17.297 9.649,43.598 28.207,56.047 25.016,16.773 42.754,16.773 67.766,0 15.371,-10.309 22.82,-30.121 26.422,-46.449"
         style="fill:none;stroke:#000000;stroke-width:0.931014;stroke-linecap:butt;stroke-linejoin:miter;stroke-miterlimit:4;stroke-dasharray:none;stroke-opacity:1"
         id="path5559"
         inkscape:connector-curvature="0" /><path
         d="m 303.426,119.082 -1.504,-9.746 -4.902,8.555 6.406,1.191 z"
         style="fill:#000000;fill-opacity:1;fill-rule:nonzero;stroke:#000000;stroke-width:0.931014;stroke-linecap:butt;stroke-linejoin:miter;stroke-miterlimit:4;stroke-dasharray:none;stroke-opacity:1"
         id="path5561"
         inkscape:connector-curvature="0" /><path
         d="m 184.062,107.199 c 5.122,7.762 12.571,16.606 21.887,20.942 27.309,12.703 40.461,12.703 67.766,0 6.262,-2.914 11.68,-7.86 16.113,-13.149"
         style="fill:none;stroke:#000000;stroke-width:0.931014;stroke-linecap:butt;stroke-linejoin:miter;stroke-miterlimit:4;stroke-dasharray:none;stroke-opacity:1"
         id="path5567"
         inkscape:connector-curvature="0" /><path
         d="m 292.676,116.621 2.926,-9.422 -8.161,5.539 5.235,3.883 z"
         style="fill:#000000;fill-opacity:1;fill-rule:nonzero;stroke:#000000;stroke-width:0.931014;stroke-linecap:butt;stroke-linejoin:miter;stroke-miterlimit:4;stroke-dasharray:none;stroke-opacity:1"
         id="path5569"
         inkscape:connector-curvature="0" /><path
         d="m 192.027,92.762 85.953,0"
         style="fill:none;stroke:#000000;stroke-width:0.931014;stroke-linecap:butt;stroke-linejoin:miter;stroke-miterlimit:4;stroke-dasharray:none;stroke-opacity:1"
         id="path5575"
         inkscape:connector-curvature="0" /><path
         d="m 278.125,96.02 9.313,-3.258 -9.313,-3.258 0,6.516 z"
         style="fill:#000000;fill-opacity:1;fill-rule:nonzero;stroke:#000000;stroke-width:0.931014;stroke-linecap:butt;stroke-linejoin:miter;stroke-miterlimit:4;stroke-dasharray:none;stroke-opacity:1"
         id="path5577"
         inkscape:connector-curvature="0" /><path
         d="m 188.688,82.316 c 5.039,-3.558 11.113,-7.097 17.261,-8.918 28.875,-8.562 38.891,-8.562 67.766,0 3.172,0.938 6.324,2.336 9.32,3.954"
         style="fill:none;stroke:#000000;stroke-width:0.931014;stroke-linecap:butt;stroke-linejoin:miter;stroke-miterlimit:4;stroke-dasharray:none;stroke-opacity:1"
         id="path5583"
         inkscape:connector-curvature="0" /><path
         d="m 281.355,80.145 9.622,2.171 -6.168,-7.699 -3.454,5.528 z"
         style="fill:#000000;fill-opacity:1;fill-rule:nonzero;stroke:#000000;stroke-width:0.931014;stroke-linecap:butt;stroke-linejoin:miter;stroke-miterlimit:4;stroke-dasharray:none;stroke-opacity:1"
         id="path5585"
         inkscape:connector-curvature="0" /><path
         d="m 181.809,77.098 c 4.703,-10.493 12.523,-23.493 24.14,-29.77 26.5,-14.312 41.266,-14.312 67.766,0 8.625,4.656 15.156,13.02 19.871,21.313"
         style="fill:none;stroke:#000000;stroke-width:0.931014;stroke-linecap:butt;stroke-linejoin:miter;stroke-miterlimit:4;stroke-dasharray:none;stroke-opacity:1"
         id="path5591"
         inkscape:connector-curvature="0" /><path
         d="m 290.754,70.254 7.105,6.844 -1.289,-9.782 -5.816,2.938 z"
         style="fill:#000000;fill-opacity:1;fill-rule:nonzero;stroke:#000000;stroke-width:0.931014;stroke-linecap:butt;stroke-linejoin:miter;stroke-miterlimit:4;stroke-dasharray:none;stroke-opacity:1"
         id="path5593"
         inkscape:connector-curvature="0" /><path
         d="m 177.398,76.07 c 2.34,-18.101 9.086,-46.179 28.551,-59.465 24.875,-16.98 42.891,-16.98 67.766,0 16.347,11.161 23.726,32.75 27.058,50.102"
         style="fill:none;stroke:#000000;stroke-width:0.931014;stroke-linecap:butt;stroke-linejoin:miter;stroke-miterlimit:4;stroke-dasharray:none;stroke-opacity:1"
         id="path5599"
         inkscape:connector-curvature="0" /><path
         d="m 297.578,67.391 4.692,8.679 1.746,-9.711 -6.438,1.032 z"
         style="fill:#000000;fill-opacity:1;fill-rule:nonzero;stroke:#000000;stroke-width:0.931014;stroke-linecap:butt;stroke-linejoin:miter;stroke-miterlimit:4;stroke-dasharray:none;stroke-opacity:1"
         id="path5601"
         inkscape:connector-curvature="0" /><path
         d="m 450.41,92.762 c 0,-9.254 -7.504,-16.758 -16.758,-16.758 -9.254,0 -16.757,7.504 -16.757,16.758 0,9.258 7.503,16.758 16.757,16.758 9.254,0 16.758,-7.5 16.758,-16.758 z"
         style="fill:none;stroke:#000000;stroke-width:0.931014;stroke-linecap:butt;stroke-linejoin:miter;stroke-miterlimit:4;stroke-dasharray:none;stroke-opacity:1"
         id="path5607"
         inkscape:connector-curvature="0" /><text
         transform="matrix(1,0,0,-1,430.39381,88.852006)"
         style="font-variant:normal;font-weight:normal;font-size:13.0341959px;font-family:TeXGyreTermes;-inkscape-font-specification:TeXGyreTermes-Regular;writing-mode:lr-tb;fill:#000000;fill-opacity:1;fill-rule:nonzero;stroke:none"
         id="text5609"><tspan
           x="0"
           y="0"
           id="tspan5611">4</tspan></text>
<path
         d="m 321.242,92.762 85.953,0"
         style="fill:none;stroke:#000000;stroke-width:0.931014;stroke-linecap:butt;stroke-linejoin:miter;stroke-miterlimit:4;stroke-dasharray:none;stroke-opacity:1"
         id="path5613"
         inkscape:connector-curvature="0" /><path
         d="m 407.34,96.02 9.308,-3.258 -9.308,-3.258 0,6.516 z"
         style="fill:#000000;fill-opacity:1;fill-rule:nonzero;stroke:#000000;stroke-width:0.931014;stroke-linecap:butt;stroke-linejoin:miter;stroke-miterlimit:4;stroke-dasharray:none;stroke-opacity:1"
         id="path5615"
         inkscape:connector-curvature="0" /><text
         transform="matrix(1,0,0,-1,335.16174,96.672518)"
         style="font-variant:normal;font-weight:normal;font-size:13.0341959px;font-family:TeXGyreTermes;-inkscape-font-specification:TeXGyreTermes-Regular;writing-mode:lr-tb;fill:#000000;fill-opacity:1;fill-rule:nonzero;stroke:none"
         id="text5617"><tspan
           x="0 7.3512864 13.13847 19.655567 24.72587 32.077156 35.700665 43.051949 48.839134 55.356232 60.426533"
           y="0"
           sodipodi:role="line"
           id="tspan5619">&lt;eps&gt;:&lt;eps&gt;</tspan></text>
<path
         d="m 317.902,82.316 c 5.039,-3.558 11.11,-7.097 17.262,-8.918 28.875,-8.562 38.887,-8.562 67.766,0 3.172,0.938 6.32,2.336 9.32,3.954"
         style="fill:none;stroke:#000000;stroke-width:0.931014;stroke-linecap:butt;stroke-linejoin:miter;stroke-miterlimit:4;stroke-dasharray:none;stroke-opacity:1"
         id="path5621"
         inkscape:connector-curvature="0" /><path
         d="m 410.57,80.145 9.621,2.171 -6.168,-7.699 -3.453,5.528 z"
         style="fill:#000000;fill-opacity:1;fill-rule:nonzero;stroke:#000000;stroke-width:0.931014;stroke-linecap:butt;stroke-linejoin:miter;stroke-miterlimit:4;stroke-dasharray:none;stroke-opacity:1"
         id="path5623"
         inkscape:connector-curvature="0" /><text
         transform="matrix(1,0,0,-1,347.66133,77.121224)"
         style="font-variant:normal;font-weight:normal;font-size:13.0341959px;font-family:TeXGyreTermes;-inkscape-font-specification:TeXGyreTermes-Regular;writing-mode:lr-tb;fill:#000000;fill-opacity:1;fill-rule:nonzero;stroke:none"
         id="text5625"><tspan
           x="0 7.2470131 11.5874 19.551294 23.174801 30.421814 34.801304"
           y="0"
           sodipodi:role="line"
           id="tspan5627">SIL:SIL</tspan></text>
<path
         d="m 528.516,92.762 c 0,-9.254 -7.504,-16.758 -16.758,-16.758 -9.258,0 -16.762,7.504 -16.762,16.758 0,9.258 7.504,16.758 16.762,16.758 9.254,0 16.758,-7.5 16.758,-16.758 z"
         style="fill:none;stroke:#000000;stroke-width:0.931014;stroke-linecap:butt;stroke-linejoin:miter;stroke-miterlimit:4;stroke-dasharray:none;stroke-opacity:1"
         id="path5629"
         inkscape:connector-curvature="0" /><text
         transform="matrix(1,0,0,-1,508.49753,88.852006)"
         style="font-variant:normal;font-weight:normal;font-size:13.0341959px;font-family:TeXGyreTermes;-inkscape-font-specification:TeXGyreTermes-Regular;writing-mode:lr-tb;fill:#000000;fill-opacity:1;fill-rule:nonzero;stroke:none"
         id="text5631"><tspan
           x="0"
           y="0"
           id="tspan5633">5</tspan></text>
<path
         d="m 450.754,92.762 34.695,0"
         style="fill:none;stroke:#000000;stroke-width:0.931014;stroke-linecap:butt;stroke-linejoin:miter;stroke-miterlimit:4;stroke-dasharray:none;stroke-opacity:1"
         id="path5635"
         inkscape:connector-curvature="0" /><path
         d="m 485.633,96.02 9.308,-3.258 -9.308,-3.258 0,6.516 z"
         style="fill:#000000;fill-opacity:1;fill-rule:nonzero;stroke:#000000;stroke-width:0.931014;stroke-linecap:butt;stroke-linejoin:miter;stroke-miterlimit:4;stroke-dasharray:none;stroke-opacity:1"
         id="path5637"
         inkscape:connector-curvature="0" /><text
         transform="matrix(1,0,0,-1,464.37917,96.672518)"
         style="font-variant:normal;font-weight:normal;font-size:13.0341959px;font-family:TeXGyreTermes;-inkscape-font-specification:TeXGyreTermes-Regular;writing-mode:lr-tb;fill:#000000;fill-opacity:1;fill-rule:nonzero;stroke:none"
         id="text5639"><tspan
           sodipodi:role="line"
           id="tspan5641"
           x="0"
           y="0">g:g</tspan></text>
<path
         d="m 604.551,92.762 c 0,-9.254 -7.5,-16.758 -16.758,-16.758 -9.254,0 -16.758,7.504 -16.758,16.758 0,9.258 7.504,16.758 16.758,16.758 9.258,0 16.758,-7.5 16.758,-16.758 z"
         style="fill:none;stroke:#000000;stroke-width:0.931014;stroke-linecap:butt;stroke-linejoin:miter;stroke-miterlimit:4;stroke-dasharray:none;stroke-opacity:1"
         id="path5643"
         inkscape:connector-curvature="0" /><path
         d="m 608.277,92.762 c 0,-11.313 -9.172,-20.481 -20.484,-20.481 -11.313,0 -20.481,9.168 -20.481,20.481 0,11.312 9.168,20.484 20.481,20.484 11.312,0 20.484,-9.172 20.484,-20.484 z"
         style="fill:none;stroke:#000000;stroke-width:0.931014;stroke-linecap:butt;stroke-linejoin:miter;stroke-miterlimit:4;stroke-dasharray:none;stroke-opacity:1"
         id="path5645"
         inkscape:connector-curvature="0" /><text
         transform="matrix(1,0,0,-1,584.5353,88.852006)"
         style="font-variant:normal;font-weight:normal;font-size:13.0341959px;font-family:TeXGyreTermes;-inkscape-font-specification:TeXGyreTermes-Regular;writing-mode:lr-tb;fill:#000000;fill-opacity:1;fill-rule:nonzero;stroke:none"
         id="text5647"><tspan
           x="0"
           y="0"
           id="tspan5649">6</tspan></text>
<path
         d="m 528.781,92.762 28.86,0"
         style="fill:none;stroke:#000000;stroke-width:0.931014;stroke-linecap:butt;stroke-linejoin:miter;stroke-miterlimit:4;stroke-dasharray:none;stroke-opacity:1"
         id="path5651"
         inkscape:connector-curvature="0" /><path
         d="m 557.789,96.02 9.313,-3.258 -9.313,-3.258 0,6.516 z"
         style="fill:#000000;fill-opacity:1;fill-rule:nonzero;stroke:#000000;stroke-width:0.931014;stroke-linecap:butt;stroke-linejoin:miter;stroke-miterlimit:4;stroke-dasharray:none;stroke-opacity:1"
         id="path5653"
         inkscape:connector-curvature="0" /><text
         transform="matrix(1,0,0,-1,542.4905,96.672518)"
         style="font-variant:normal;font-weight:normal;font-size:13.0341959px;font-family:TeXGyreTermes;-inkscape-font-specification:TeXGyreTermes-Regular;writing-mode:lr-tb;fill:#000000;fill-opacity:1;fill-rule:nonzero;stroke:none"
         id="text5655"><tspan
           x="0 3.6235065 7.2470131"
           y="0"
           sodipodi:role="line"
           id="tspan5657">i:i</tspan></text>
<text
         xml:space="preserve"
         style="font-style:normal;font-weight:normal;font-size:14px;line-height:125%;font-family:sans-serif;letter-spacing:0px;word-spacing:0px;fill:#000000;fill-opacity:1;stroke:none;stroke-width:1px;stroke-linecap:butt;stroke-linejoin:miter;stroke-opacity:1"
         x="175.60054"
         y="-182.9399"
         id="text6217"
         sodipodi:linespacing="125%"
         transform="scale(1,-1)"><tspan
           sodipodi:role="line"
           id="tspan6219"
           x="175.60054"
           y="-182.9399"
           style="font-style:normal;font-variant:normal;font-weight:normal;font-stretch:normal;font-family:TeXGyreTermes;-inkscape-font-specification:TeXGyreTermes">&lt;eps&gt;:&lt;eps&gt; / P(/abgi/)</tspan></text>
<text
         xml:space="preserve"
         style="font-style:normal;font-weight:normal;font-size:14px;line-height:125%;font-family:sans-serif;letter-spacing:0px;word-spacing:0px;fill:#000000;fill-opacity:1;stroke:none;stroke-width:1px;stroke-linecap:butt;stroke-linejoin:miter;stroke-opacity:1"
         x="198.02727"
         y="-142.1727"
         id="text6217-7"
         sodipodi:linespacing="125%"
         transform="scale(1,-1)"><tspan
           sodipodi:role="line"
           id="tspan6219-5"
           x="198.02727"
           y="-142.1727"
           style="font-style:normal;font-variant:normal;font-weight:normal;font-stretch:normal;font-family:TeXGyreTermes;-inkscape-font-specification:TeXGyreTermes">a:a / P(/abagi/)</tspan></text>
<text
         xml:space="preserve"
         style="font-style:normal;font-weight:normal;font-size:14px;line-height:125%;font-family:sans-serif;letter-spacing:0px;word-spacing:0px;fill:#000000;fill-opacity:1;stroke:none;stroke-width:1px;stroke-linecap:butt;stroke-linejoin:miter;stroke-opacity:1"
         x="196.73958"
         y="-98.13665"
         id="text6217-7-3"
         sodipodi:linespacing="125%"
         transform="scale(1,-1)"><tspan
           sodipodi:role="line"
           id="tspan6219-5-5"
           x="196.73958"
           y="-98.13665"
           style="font-style:normal;font-variant:normal;font-weight:normal;font-stretch:normal;font-family:TeXGyreTermes;-inkscape-font-specification:TeXGyreTermes">e:e / P(/abegi/)</tspan></text>
<text
         xml:space="preserve"
         style="font-style:normal;font-weight:normal;font-size:14px;line-height:125%;font-family:sans-serif;letter-spacing:0px;word-spacing:0px;fill:#000000;fill-opacity:1;stroke:none;stroke-width:1px;stroke-linecap:butt;stroke-linejoin:miter;stroke-opacity:1"
         x="200.35733"
         y="-76.39045"
         id="text6217-7-3-6"
         sodipodi:linespacing="125%"
         transform="scale(1,-1)"><tspan
           sodipodi:role="line"
           id="tspan6219-5-5-2"
           x="200.35733"
           y="-76.39045"
           style="font-style:normal;font-variant:normal;font-weight:normal;font-stretch:normal;font-family:TeXGyreTermes;-inkscape-font-specification:TeXGyreTermes">i:i / P(/abigi/)</tspan></text>
<text
         xml:space="preserve"
         style="font-style:normal;font-weight:normal;font-size:14px;line-height:125%;font-family:sans-serif;letter-spacing:0px;word-spacing:0px;fill:#000000;fill-opacity:1;stroke:none;stroke-width:1px;stroke-linecap:butt;stroke-linejoin:miter;stroke-opacity:1"
         x="198.45454"
         y="-54.372429"
         id="text6217-7-3-9"
         sodipodi:linespacing="125%"
         transform="scale(1,-1)"><tspan
           sodipodi:role="line"
           id="tspan6219-5-5-1"
           x="198.45454"
           y="-54.372429"
           style="font-style:normal;font-variant:normal;font-weight:normal;font-stretch:normal;font-family:TeXGyreTermes;-inkscape-font-specification:TeXGyreTermes">o:o / P(/abogi/)</tspan></text>
<text
         xml:space="preserve"
         style="font-style:normal;font-weight:normal;font-size:14px;line-height:125%;font-family:sans-serif;letter-spacing:0px;word-spacing:0px;fill:#000000;fill-opacity:1;stroke:none;stroke-width:1px;stroke-linecap:butt;stroke-linejoin:miter;stroke-opacity:1"
         x="200.08551"
         y="-23.384092"
         id="text6217-7-3-2"
         sodipodi:linespacing="125%"
         transform="scale(1,-1)"><tspan
           sodipodi:role="line"
           id="tspan6219-5-5-7"
           x="200.08551"
           y="-23.384092"
           style="font-style:normal;font-variant:normal;font-weight:normal;font-stretch:normal;font-family:TeXGyreTermes;-inkscape-font-specification:TeXGyreTermes">u:u / P(/abugi/)</tspan></text>
</g></g></svg>